<svg width="512" height="512" viewBox="0 0 512 512" fill="none" xmlns="http://www.w3.org/2000/svg">
  <rect width="512" height="512" rx="128" fill="#4A7C9E"/>
  <path d="M168 128H280C306.667 128 330.667 133.333 352 144C373.333 154.667 390 169.333 402 188C414 206.667 420 228.667 420 254C420 274 414.667 292.667 404 310C393.333 327.333 378.667 341.333 360 352C341.333 362.667 320 368 296 368H168V128ZM236 184V312H280C301.333 312 318.667 306 332 294C345.333 282 352 267.333 352 250C352 232.667 345.333 218 332 206C318.667 194 301.333 188 280 188H236Z" fill="white"/>
</svg>
